<?xml version="1.0" encoding="UTF-8" standalone="no" ?>
<!DOCTYPE svg PUBLIC "-//W3C//DTD SVG 1.1//EN" "http://www.w3.org/Graphics/SVG/1.1/DTD/svg11.dtd">
<svg xmlns="http://www.w3.org/2000/svg" xmlns:xlink="http://www.w3.org/1999/xlink" version="1.1" width="1080" height="1080" viewBox="0 0 1080 1080" xml:space="preserve">
<desc>Created with Fabric.js 5.2.4</desc>
<defs>
</defs>
<g transform="matrix(1 0 0 1 540 540)" id="c165676f-3296-44a2-b618-d13a24bf389f"  >
<rect style="stroke: none; stroke-width: 1; stroke-dasharray: none; stroke-linecap: butt; stroke-dashoffset: 0; stroke-linejoin: miter; stroke-miterlimit: 4; fill: rgb(255,255,255); fill-rule: nonzero; opacity: 1; visibility: hidden;" vector-effect="non-scaling-stroke"  x="-540" y="-540" rx="0" ry="0" width="1080" height="1080" />
</g>
<g transform="matrix(1 0 0 1 540 540)" id="083276b7-287a-4456-bc56-3cc89224163b"  >
</g>
<g transform="matrix(NaN NaN NaN NaN 0 0)"  >
<g style=""   >
</g>
</g>
<g transform="matrix(45 0 0 45 540 590.08)" id="SVGRepo_iconCarrier"  >
<path style="stroke: none; stroke-width: 1; stroke-dasharray: none; stroke-linecap: butt; stroke-dashoffset: 0; stroke-linejoin: miter; stroke-miterlimit: 4; fill: rgb(30,214,95); fill-rule: evenodd; opacity: 1;"  transform=" translate(-12, -12)" d="M 12 22 C 17.5228 22 22 17.5228 22 12 C 22 6.47715 17.5228 2 12 2 C 6.47715 2 2 6.47715 2 12 C 2 17.5228 6.47715 22 12 22 Z M 10.6935 15.8458 L 15.4137 13.059 C 16.1954 12.5974 16.1954 11.4026 15.4137 10.941 L 10.6935 8.15419 C 9.93371 7.70561 9 8.28947 9 9.21316 L 9 14.7868 C 9 15.7105 9.93371 16.2944 10.6935 15.8458 Z" stroke-linecap="round" />
</g>
<g transform="matrix(NaN NaN NaN NaN 0 0)"  >
<g style=""   >
</g>
</g>
<g transform="matrix(31.83 0 0 31.83 561.07 589.56)" id="play-[#1000]"  >
<path style="stroke: none; stroke-width: 1; stroke-dasharray: none; stroke-linecap: butt; stroke-dashoffset: 0; stroke-linejoin: miter; stroke-miterlimit: 4; fill: rgb(255,255,255); fill-rule: evenodd; opacity: 1;"  transform=" translate(-14, -3649)" d="M 18.074 3650.7335 L 12.308 3654.6315 C 10.903 3655.5815 9 3654.5835 9 3652.8985 L 9 3645.1015 C 9 3643.4155 10.903 3642.4185 12.308 3643.3685 L 18.074 3647.2665 C 19.306 3648.0995 19.306 3649.9005 18.074 3650.7335" stroke-linecap="round" />
</g>
<g transform="matrix(NaN NaN NaN NaN 0 0)"  >
<g style=""   >
</g>
</g>
<g transform="matrix(NaN NaN NaN NaN 0 0)"  >
<g style=""   >
</g>
</g>
</svg>