<?xml version="1.0" encoding="UTF-8" standalone="no" ?>
<!DOCTYPE svg PUBLIC "-//W3C//DTD SVG 1.1//EN" "http://www.w3.org/Graphics/SVG/1.1/DTD/svg11.dtd">
<svg xmlns="http://www.w3.org/2000/svg" xmlns:xlink="http://www.w3.org/1999/xlink" version="1.1" width="1080" height="1080" viewBox="0 0 1080 1080" xml:space="preserve">
<desc>Created with Fabric.js 5.2.4</desc>
<defs>
</defs>
<g transform="matrix(1 0 0 1 540 540)" id="faf7c7e8-22a9-4afb-a9fd-dd9aba097be1"  >
</g>
<g transform="matrix(1 0 0 1 540 540)" id="3974c3cd-c3f2-4316-84b8-dd2f32257054"  >
<rect style="stroke: none; stroke-width: 1; stroke-dasharray: none; stroke-linecap: butt; stroke-dashoffset: 0; stroke-linejoin: miter; stroke-miterlimit: 4; fill: rgb(255,255,255); fill-rule: nonzero; opacity: 1; visibility: hidden;" vector-effect="non-scaling-stroke"  x="-540" y="-540" rx="0" ry="0" width="1080" height="1080" />
</g>
<g transform="matrix(17.95 0 0 17.95 571.07 540)"  >
<path style="stroke: rgb(30,214,96); stroke-width: 1; stroke-dasharray: none; stroke-linecap: butt; stroke-dashoffset: 0; stroke-linejoin: miter; stroke-miterlimit: 4; fill: rgb(30,214,96); fill-rule: nonzero; opacity: 1;" vector-effect="non-scaling-stroke"  transform=" translate(-32, -32)" d="M 52.998 60 L 49.077 60 L 49.077 54.548 C 49.077 52.992000000000004 47.921 51.714 46.428 51.504000000000005 L 46.428 51.275000000000006 C 46.428 50.014 45.669999999999995 48.931000000000004 44.589 48.453 C 44.875 46.751000000000005 45.49 39.298 35.726 34.297000000000004 L 35.726 32.847 C 35.726 32.571 35.502 32.347 35.224 32.347 L 34.647 32.347 L 34.647 30.221 C 34.647 29.566 34.226 29.013 33.644 28.804 L 33.644 25.433999999999997 C 33.644 25.157999999999998 33.42 24.933999999999997 33.141999999999996 24.933999999999997 C 32.86399999999999 24.933999999999997 32.63999999999999 25.157999999999998 32.63999999999999 25.433999999999997 L 32.63999999999999 28.804 C 32.056999999999995 29.011999999999997 31.636999999999993 29.566 31.636999999999993 30.221 L 31.636999999999993 32.347 L 31.071999999999992 32.347 C 30.79499999999999 32.347 30.569999999999993 32.571 30.569999999999993 32.847 L 30.569999999999993 34.297000000000004 C 20.811999999999994 39.295 21.419999999999995 46.74100000000001 21.706999999999994 48.449000000000005 C 20.622999999999994 48.92700000000001 19.861999999999995 50.01200000000001 19.861999999999995 51.275000000000006 L 19.861999999999995 51.504000000000005 C 19.634999999999994 51.536 19.415999999999993 51.58800000000001 19.207999999999995 51.668000000000006 L 19.207999999999995 31.182 L 20.210999999999995 28.785999999999998 C 20.264999999999993 28.706 20.303999999999995 28.615999999999996 20.303999999999995 28.512999999999998 C 20.303999999999995 28.391 20.260999999999996 28.279999999999998 20.186999999999994 28.192999999999998 L 19.207999999999995 26.022999999999996 L 19.207999999999995 16.116999999999997 L 20.210999999999995 13.720999999999997 C 20.264999999999993 13.640999999999996 20.303999999999995 13.550999999999997 20.303999999999995 13.447999999999997 C 20.303999999999995 13.325999999999997 20.260999999999996 13.214999999999996 20.186999999999994 13.127999999999997 L 19.167999999999996 10.869999999999997 C 19.086999999999996 10.689999999999998 18.906999999999996 10.574999999999998 18.709999999999997 10.574999999999998 L 18.383999999999997 10.574999999999998 L 18.383999999999997 8.183 C 18.383999999999997 7.3839999999999995 18.071999999999996 6.629 17.505999999999997 6.058 C 17.066999999999997 5.617 16.494999999999997 5.33 15.889999999999997 5.225 L 15.889999999999997 3.5 C 15.889999999999997 3.224 15.664999999999997 3 15.387999999999996 3 C 15.109999999999996 3 14.885999999999996 3.224 14.885999999999996 3.5 L 14.885999999999996 5.225 C 13.472999999999995 5.467 12.390999999999995 6.696999999999999 12.390999999999995 8.183 L 12.390999999999995 10.574 L 12.066999999999995 10.574 C 11.868999999999994 10.574 11.689999999999994 10.689 11.608999999999995 10.869 L 10.536999999999995 13.242 C 10.524999999999995 13.267000000000001 10.529999999999996 13.295000000000002 10.522999999999996 13.321000000000002 C 10.511999999999997 13.362000000000002 10.501999999999995 13.400000000000002 10.501999999999995 13.442000000000002 C 10.501999999999995 13.483000000000002 10.509999999999994 13.520000000000001 10.519999999999996 13.559000000000003 C 10.525999999999996 13.586000000000002 10.520999999999995 13.614000000000003 10.531999999999996 13.639000000000003 L 11.568999999999996 16.114000000000004 L 11.568999999999996 26.025000000000006 L 10.537999999999995 28.308000000000007 C 10.525999999999994 28.333000000000006 10.530999999999995 28.361000000000008 10.523999999999996 28.387000000000008 C 10.512999999999996 28.428000000000008 10.502999999999995 28.467000000000006 10.502999999999995 28.509000000000007 C 10.502999999999995 28.550000000000008 10.510999999999994 28.587000000000007 10.520999999999995 28.62600000000001 C 10.526999999999996 28.65300000000001 10.521999999999995 28.680000000000007 10.532999999999996 28.706000000000007 L 11.569999999999997 31.181000000000008 L 11.569999999999997 60.5 C 11.569999999999997 60.776 11.794999999999996 61 12.071999999999997 61 L 17.717999999999996 61 L 18.707999999999995 61 L 48.57899999999999 61 L 53.001999999999995 61 C 53.278999999999996 61 53.504 60.776 53.504 60.5 C 53.504 60.224 53.275 60 52.998 60 z M 31.573 34.081 L 31.573 33.348000000000006 L 34.722 33.348000000000006 L 34.722 34.081 L 31.573 34.081 z M 32.64 30.221 C 32.64 29.94 32.865 29.711 33.142 29.711 C 33.419000000000004 29.711 33.643 29.939999999999998 33.643 30.221 L 33.643 32.347 L 32.64 32.347 L 32.64 30.221 z M 31.228 35.081 L 35.057 35.081 C 35.081 35.091 35.099000000000004 35.102000000000004 35.126000000000005 35.111000000000004 C 44.48700000000001 39.82900000000001 43.904 46.619 43.61800000000001 48.21600000000001 C 43.53000000000001 48.208000000000006 43.44500000000001 48.18900000000001 43.354000000000006 48.18900000000001 L 22.934000000000005 48.18900000000001 C 22.846000000000004 48.18900000000001 22.763000000000005 48.208000000000006 22.677000000000003 48.21500000000001 C 22.392 46.617 21.819 39.832 31.228 35.081 z M 20.865 51.276 C 20.865 50.125 21.793 49.189 22.933999999999997 49.189 L 43.354 49.189 C 44.495 49.189 45.423 50.125 45.423 51.276 L 45.423 51.462 L 20.865 51.462 L 20.865 51.276 z M 12.399 30.571 L 11.745999999999999 29.012 L 19.026 29.012 L 18.373 30.571 L 12.399 30.571 z M 14.397 25.639 L 14.397 23.798 C 14.397 23.325 14.777000000000001 22.939999999999998 15.245000000000001 22.939999999999998 C 15.712000000000002 22.939999999999998 16.093 23.325 16.093 23.798 L 16.093 25.639 L 14.397 25.639 z M 15.245 21.94 C 14.224 21.94 13.392 22.773 13.392 23.798000000000002 L 13.392 25.639000000000003 L 12.57 25.639000000000003 L 12.57 16.51 L 18.201 16.51 L 18.201 25.639000000000003 L 17.096 25.639000000000003 L 17.096 23.798000000000002 C 17.097 22.774 16.267 21.94 15.245 21.94 z M 18.374 15.506 L 12.399999999999999 15.506 L 11.746999999999998 13.946 L 19.028 13.946 L 18.374 15.506 z M 12.39 26.639 L 18.385 26.639 L 19.005000000000003 28.012 L 11.77 28.012 L 12.39 26.639 z M 13.394 8.183 C 13.394 7.076 14.288 6.1739999999999995 15.387 6.1739999999999995 C 15.908000000000001 6.1739999999999995 16.42 6.388 16.792 6.762 C 17.17 7.143999999999999 17.379 7.648 17.379 8.183 L 17.379 10.574 L 13.394000000000002 10.574 L 13.394000000000002 8.183 z M 12.39 11.574 L 18.385 11.574 L 19.005000000000003 12.947 L 11.772000000000002 12.947 L 12.39 11.574 z M 12.571 31.571 L 18.201999999999998 31.571 L 18.201999999999998 52.293000000000006 C 17.596999999999998 52.857000000000006 17.212 53.656000000000006 17.212 54.54800000000001 L 17.212 60 L 12.571 60 L 12.571 31.571 z M 18.216 60 L 18.216 54.548 C 18.216 53.397 19.144000000000002 52.461 20.285 52.461 L 20.363 52.461 L 45.925 52.461 L 46.003 52.461 C 47.144 52.461 48.073 53.397 48.073 54.548 L 48.073 60 L 36.799 60 C 36.28 56.452 33.577 54.266 33.456 54.171 C 33.274 54.025999999999996 33.014 54.025999999999996 32.832 54.171 C 32.711 54.266 30.007 56.452 29.489 60 L 18.704 60 L 18.216 60 z M 35.772 60 L 30.516 60 C 30.921999999999997 57.604 32.469 55.879 33.144 55.234 C 33.819 55.879 35.366 57.604 35.772 60 z" stroke-linecap="round" />
</g>
<g transform="matrix(NaN NaN NaN NaN 0 0)"  >
<g style=""   >
</g>
</g>
<g transform="matrix(NaN NaN NaN NaN 0 0)"  >
<g style=""   >
</g>
</g>
</svg>