<svg xmlns="http://www.w3.org/2000/svg" xmlns:xlink="http://www.w3.org/1999/xlink" width="1080" zoomAndPan="magnify" viewBox="0 0 810 809.999993" height="1080" preserveAspectRatio="xMidYMid meet" version="1.0"><path fill="#1ed660" d="M 240.226562 305.675781 L 774.863281 305.675781 C 793.769531 305.675781 809.242188 321.148438 809.242188 340.054688 L 809.242188 774.984375 C 809.242188 793.894531 793.769531 809.367188 774.863281 809.367188 L 241.941406 809.367188 C 223.035156 809.367188 207.5625 793.894531 205.84375 774.984375 L 205.84375 340.054688 C 205.84375 321.148438 221.3125 305.675781 240.226562 305.675781 Z M 274.601562 742.324219 L 742.199219 742.324219 L 742.199219 374.433594 L 274.605469 374.433594 L 274.605469 742.324219 Z M 274.601562 742.324219 " fill-opacity="1" fill-rule="nonzero"/><path fill="#1ed660" d="M 508.398438 67.601562 C 671.710938 67.601562 804.078125 189.660156 805.800781 339.222656 C 805.800781 358.132812 790.328125 373.601562 771.417969 373.601562 C 752.511719 373.601562 737.035156 358.132812 737.035156 339.222656 C 737.035156 225.761719 635.613281 134.648438 508.398438 134.648438 C 382.90625 134.648438 279.761719 225.761719 279.761719 339.222656 C 279.761719 358.132812 264.289062 373.601562 245.378906 373.601562 C 226.46875 373.601562 210.996094 358.132812 210.996094 339.222656 C 210.992188 189.660156 345.082031 67.601562 508.398438 67.601562 Z M 508.398438 67.601562 " fill-opacity="1" fill-rule="nonzero"/><path fill="#1ed660" d="M 508.398438 67.601562 C 671.710938 67.601562 804.078125 189.660156 805.800781 339.222656 C 805.800781 358.132812 790.328125 373.601562 771.417969 373.601562 C 752.511719 373.601562 737.035156 358.132812 737.035156 339.222656 C 737.035156 225.761719 635.613281 134.648438 508.398438 134.648438 C 382.90625 134.648438 279.761719 225.761719 279.761719 339.222656 C 279.761719 358.132812 264.289062 373.601562 245.378906 373.601562 C 226.46875 373.601562 210.996094 358.132812 210.996094 339.222656 C 210.992188 189.660156 345.082031 67.601562 508.398438 67.601562 Z M 508.398438 67.601562 " fill-opacity="1" fill-rule="nonzero"/><path fill="#1ed660" d="M 374.316406 339.222656 C 374.316406 203.410156 422.453125 67.601562 511.847656 67.601562 C 602.957031 67.601562 649.371094 203.414062 649.371094 339.222656 C 649.371094 358.132812 633.898438 373.601562 614.988281 373.601562 C 596.082031 373.601562 580.609375 358.132812 580.609375 339.222656 C 580.609375 206.851562 534.191406 134.648438 510.128906 134.648438 C 486.058594 134.648438 439.644531 206.851562 439.644531 339.222656 C 439.644531 358.132812 424.171875 373.601562 405.261719 373.601562 C 386.351562 373.601562 370.878906 358.132812 374.316406 339.222656 Z M 374.316406 339.222656 " fill-opacity="1" fill-rule="nonzero"/><path fill="#1ed660" d="M 374.316406 339.222656 C 374.316406 203.410156 422.453125 67.601562 511.847656 67.601562 C 602.957031 67.601562 649.371094 203.414062 649.371094 339.222656 C 649.371094 358.132812 633.898438 373.601562 614.988281 373.601562 C 596.082031 373.601562 580.609375 358.132812 580.609375 339.222656 C 580.609375 206.851562 534.191406 134.648438 510.128906 134.648438 C 486.058594 134.648438 439.644531 206.851562 439.644531 339.222656 C 439.644531 358.132812 424.171875 373.601562 405.261719 373.601562 C 386.351562 373.601562 370.878906 358.132812 374.316406 339.222656 Z M 374.316406 339.222656 " fill-opacity="1" fill-rule="nonzero"/><path fill="#1ed660" d="M 504.96875 510.511719 L 511.84375 510.511719 C 568.574219 510.511719 614.988281 556.925781 614.988281 613.65625 L 614.988281 775.25 C 614.988281 794.160156 599.519531 809.632812 580.609375 809.632812 L 434.484375 809.632812 C 417.292969 809.632812 401.824219 794.160156 401.824219 775.25 L 401.824219 613.65625 C 401.824219 556.925781 448.238281 510.511719 504.96875 510.511719 Z M 468.867188 742.589844 L 547.945312 742.589844 C 547.945312 742.589844 547.945312 613.65625 547.945312 613.65625 C 547.945312 593.027344 532.472656 577.554688 511.84375 577.554688 L 504.96875 577.554688 C 484.339844 577.554688 468.867188 593.027344 468.867188 613.65625 Z M 468.867188 742.589844 " fill-opacity="1" fill-rule="nonzero"/><path fill="#1ed660" d="M 101.761719 44.855469 L 101.761719 37.117188 C 101.761719 18.207031 117.234375 2.734375 136.144531 2.734375 C 155.054688 2.734375 170.527344 18.207031 170.527344 37.117188 L 170.527344 44.960938 C 229.230469 60.332031 271.953125 114.074219 271.953125 176.367188 L 271.953125 774.609375 C 271.953125 793.519531 256.480469 808.992188 237.570312 808.992188 L 34.714844 808.992188 C 15.804688 808.992188 0.335938 793.519531 0.335938 774.609375 L 0.335938 176.367188 C 0.335938 112.628906 43.0625 59.882812 101.761719 44.855469 Z M 67.378906 741.949219 L 201.46875 741.949219 L 201.46875 176.367188 C 201.46875 140.261719 172.246094 109.320312 134.425781 109.320312 C 98.328125 109.320312 67.378906 138.542969 67.378906 176.367188 Z M 67.378906 741.949219 " fill-opacity="1" fill-rule="nonzero"/><path fill="#1ed660" d="M 508.410156 134.261719 C 489.496094 134.261719 474.027344 120.507812 474.027344 101.597656 L 474.027344 34.554688 C 474.023438 15.644531 489.496094 0.171875 508.410156 0.171875 C 527.316406 0.171875 542.789062 15.644531 542.789062 34.554688 L 542.789062 99.878906 C 542.789062 118.789062 527.316406 134.261719 508.410156 134.261719 Z M 508.410156 134.261719 " fill-opacity="1" fill-rule="nonzero"/></svg>